<svg xmlns="http://www.w3.org/2000/svg" width="13.902" height="19.747" viewBox="0 0 13.902 19.747">
  <g id="Group_327" data-name="Group 327" transform="translate(-296.96 -158)">
    <path id="Path_61004" data-name="Path 61004" d="M303.94,158a4.686,4.686,0,0,0-.118,9.37.8.8,0,0,1,.217,0h.069a4.686,4.686,0,0,0-.168-9.37Z" transform="translate(-0.029 0)" fill="#00aaf7"/>
    <path id="Path_61005" data-name="Path 61005" d="M308.927,170.132a9.8,9.8,0,0,0-10.022,0,3.575,3.575,0,0,0-.01,6.359,9.732,9.732,0,0,0,10.032,0,3.579,3.579,0,0,0,0-6.359Z" transform="translate(0 -0.136)" fill="#00aaf7"/>
  </g>
</svg>
